<svg width="274" height="59" viewBox="0 0 274 59" fill="none" xmlns="http://www.w3.org/2000/svg">
<path d="M30.4541 0.5H253.5C264.27 0.5 273 9.23045 273 20V39C273 49.7696 264.27 58.5 253.5 58.5H31.4233C16.0411 58.5 4.75434 44.0442 8.48507 29.1213L8 29L8.48407 28.8748C4.76858 14.5082 15.6149 0.5 30.4541 0.5Z" fill="#A100FF" stroke="#FEFEFE"/>
<path d="M30.4541 0.5H253.5C264.27 0.5 273 9.23045 273 20V39C273 49.7696 264.27 58.5 253.5 58.5H31.4233C16.0411 58.5 4.75434 44.0442 8.48507 29.1213L8 29L8.48407 28.8748C4.76858 14.5082 15.6149 0.5 30.4541 0.5Z" fill="#A100FF" stroke="#FEFEFE"/>
<path d="M247.666 47.9655L1.48212 47.0058L8.42674 29.8757L8.57905 29.5L8.42674 29.1243L1.48446 12H248.052C252.794 12 257.091 14.7928 259.017 19.1263L263.415 29.0205L258.854 40.4223C257.025 44.9941 252.589 47.9847 247.666 47.9655Z" fill="white" stroke="black" stroke-width="2"/>
<path d="M216.291 29.1697L8.15621 33.395L9.50001 29.5L8.5 26.5L216.291 29.1697Z" fill="#E5C18E"/>
<g style="mix-blend-mode:darken">
<path d="M12.5 39.5L12.5001 35.4749L23.5 30.0002L12.6065 24.4752L12.5654 20.5001L31.0654 30.0002L12.5 39.5Z" fill="#A100FF"/>
</g>
<path d="M43.48 32.52H38.24L37.4 35H33.82L38.9 20.96H42.86L47.94 35H44.32L43.48 32.52ZM42.6 29.88L40.86 24.74L39.14 29.88H42.6ZM48.8061 29.42C48.8061 28.26 49.0394 27.2467 49.5061 26.38C49.9861 25.5133 50.6461 24.8467 51.4861 24.38C52.3394 23.9133 53.3128 23.68 54.4061 23.68C55.8061 23.68 56.9728 24.0467 57.9061 24.78C58.8528 25.5133 59.4728 26.5467 59.7661 27.88H56.1261C55.8194 27.0267 55.2261 26.6 54.3461 26.6C53.7194 26.6 53.2194 26.8467 52.8461 27.34C52.4728 27.82 52.2861 28.5133 52.2861 29.42C52.2861 30.3267 52.4728 31.0267 52.8461 31.52C53.2194 32 53.7194 32.24 54.3461 32.24C55.2261 32.24 55.8194 31.8133 56.1261 30.96H59.7661C59.4728 32.2667 58.8528 33.2933 57.9061 34.04C56.9594 34.7867 55.7928 35.16 54.4061 35.16C53.3128 35.16 52.3394 34.9267 51.4861 34.46C50.6461 33.9933 49.9861 33.3267 49.5061 32.46C49.0394 31.5933 48.8061 30.58 48.8061 29.42ZM60.9155 29.42C60.9155 28.26 61.1488 27.2467 61.6155 26.38C62.0955 25.5133 62.7555 24.8467 63.5955 24.38C64.4488 23.9133 65.4221 23.68 66.5155 23.68C67.9155 23.68 69.0821 24.0467 70.0155 24.78C70.9621 25.5133 71.5821 26.5467 71.8755 27.88H68.2355C67.9288 27.0267 67.3355 26.6 66.4555 26.6C65.8288 26.6 65.3288 26.8467 64.9555 27.34C64.5821 27.82 64.3955 28.5133 64.3955 29.42C64.3955 30.3267 64.5821 31.0267 64.9555 31.52C65.3288 32 65.8288 32.24 66.4555 32.24C67.3355 32.24 67.9288 31.8133 68.2355 30.96H71.8755C71.5821 32.2667 70.9621 33.2933 70.0155 34.04C69.0688 34.7867 67.9021 35.16 66.5155 35.16C65.4221 35.16 64.4488 34.9267 63.5955 34.46C62.7555 33.9933 62.0955 33.3267 61.6155 32.46C61.1488 31.5933 60.9155 30.58 60.9155 29.42ZM84.2248 29.24C84.2248 29.56 84.2048 29.8933 84.1648 30.24H76.4248C76.4782 30.9333 76.6982 31.4667 77.0848 31.84C77.4848 32.2 77.9715 32.38 78.5448 32.38C79.3982 32.38 79.9915 32.02 80.3248 31.3H83.9648C83.7782 32.0333 83.4382 32.6933 82.9448 33.28C82.4648 33.8667 81.8582 34.3267 81.1248 34.66C80.3915 34.9933 79.5715 35.16 78.6648 35.16C77.5715 35.16 76.5982 34.9267 75.7448 34.46C74.8915 33.9933 74.2248 33.3267 73.7448 32.46C73.2648 31.5933 73.0248 30.58 73.0248 29.42C73.0248 28.26 73.2582 27.2467 73.7248 26.38C74.2048 25.5133 74.8715 24.8467 75.7248 24.38C76.5782 23.9133 77.5582 23.68 78.6648 23.68C79.7448 23.68 80.7048 23.9067 81.5448 24.36C82.3848 24.8133 83.0382 25.46 83.5048 26.3C83.9848 27.14 84.2248 28.12 84.2248 29.24ZM80.7248 28.34C80.7248 27.7533 80.5248 27.2867 80.1248 26.94C79.7248 26.5933 79.2248 26.42 78.6248 26.42C78.0515 26.42 77.5648 26.5867 77.1648 26.92C76.7782 27.2533 76.5382 27.7267 76.4448 28.34H80.7248ZM92.8291 23.72C94.1357 23.72 95.1757 24.1467 95.9491 25C96.7357 25.84 97.1291 27 97.1291 28.48V35H93.7291V28.94C93.7291 28.1933 93.5357 27.6133 93.1491 27.2C92.7624 26.7867 92.2424 26.58 91.5891 26.58C90.9357 26.58 90.4157 26.7867 90.0291 27.2C89.6424 27.6133 89.4491 28.1933 89.4491 28.94V35H86.0291V23.84H89.4491V25.32C89.7957 24.8267 90.2624 24.44 90.8491 24.16C91.4357 23.8667 92.0957 23.72 92.8291 23.72ZM105.726 32.1V35H103.986C102.746 35 101.779 34.7 101.086 34.1C100.392 33.4867 100.046 32.4933 100.046 31.12V26.68H98.6856V23.84H100.046V21.12H103.466V23.84H105.706V26.68H103.466V31.16C103.466 31.4933 103.546 31.7333 103.706 31.88C103.866 32.0267 104.132 32.1 104.506 32.1H105.726ZM118.651 23.84V35H115.231V33.48C114.884 33.9733 114.411 34.3733 113.811 34.68C113.224 34.9733 112.571 35.12 111.851 35.12C110.997 35.12 110.244 34.9333 109.591 34.56C108.937 34.1733 108.431 33.62 108.071 32.9C107.711 32.18 107.531 31.3333 107.531 30.36V23.84H110.931V29.9C110.931 30.6467 111.124 31.2267 111.511 31.64C111.897 32.0533 112.417 32.26 113.071 32.26C113.737 32.26 114.264 32.0533 114.651 31.64C115.037 31.2267 115.231 30.6467 115.231 29.9V23.84H118.651ZM124.527 25.7C124.927 25.0867 125.427 24.6067 126.027 24.26C126.627 23.9 127.294 23.72 128.027 23.72V27.34H127.087C126.234 27.34 125.594 27.5267 125.167 27.9C124.741 28.26 124.527 28.9 124.527 29.82V35H121.107V23.84H124.527V25.7ZM140.182 29.24C140.182 29.56 140.162 29.8933 140.122 30.24H132.382C132.435 30.9333 132.655 31.4667 133.042 31.84C133.442 32.2 133.929 32.38 134.502 32.38C135.355 32.38 135.949 32.02 136.282 31.3H139.922C139.735 32.0333 139.395 32.6933 138.902 33.28C138.422 33.8667 137.815 34.3267 137.082 34.66C136.349 34.9933 135.529 35.16 134.622 35.16C133.529 35.16 132.555 34.9267 131.702 34.46C130.849 33.9933 130.182 33.3267 129.702 32.46C129.222 31.5933 128.982 30.58 128.982 29.42C128.982 28.26 129.215 27.2467 129.682 26.38C130.162 25.5133 130.829 24.8467 131.682 24.38C132.535 23.9133 133.515 23.68 134.622 23.68C135.702 23.68 136.662 23.9067 137.502 24.36C138.342 24.8133 138.995 25.46 139.462 26.3C139.942 27.14 140.182 28.12 140.182 29.24ZM136.682 28.34C136.682 27.7533 136.482 27.2867 136.082 26.94C135.682 26.5933 135.182 26.42 134.582 26.42C134.009 26.42 133.522 26.5867 133.122 26.92C132.735 27.2533 132.495 27.7267 132.402 28.34H136.682Z" fill="black"/>
<path d="M156.445 40.225H154.925L154.645 41H154.165L155.425 37.535H155.95L157.205 41H156.725L156.445 40.225ZM156.315 39.855L155.685 38.095L155.055 39.855H156.315ZM157.584 39.62C157.584 39.34 157.641 39.095 157.754 38.885C157.867 38.6717 158.022 38.5067 158.219 38.39C158.419 38.2733 158.642 38.215 158.889 38.215C159.102 38.215 159.301 38.265 159.484 38.365C159.667 38.4617 159.807 38.59 159.904 38.75V37.3H160.364V41H159.904V40.485C159.814 40.6483 159.681 40.7833 159.504 40.89C159.327 40.9933 159.121 41.045 158.884 41.045C158.641 41.045 158.419 40.985 158.219 40.865C158.022 40.745 157.867 40.5767 157.754 40.36C157.641 40.1433 157.584 39.8967 157.584 39.62ZM159.904 39.625C159.904 39.4183 159.862 39.2383 159.779 39.085C159.696 38.9317 159.582 38.815 159.439 38.735C159.299 38.6517 159.144 38.61 158.974 38.61C158.804 38.61 158.649 38.65 158.509 38.73C158.369 38.81 158.257 38.9267 158.174 39.08C158.091 39.2333 158.049 39.4133 158.049 39.62C158.049 39.83 158.091 40.0133 158.174 40.17C158.257 40.3233 158.369 40.4417 158.509 40.525C158.649 40.605 158.804 40.645 158.974 40.645C159.144 40.645 159.299 40.605 159.439 40.525C159.582 40.4417 159.696 40.3233 159.779 40.17C159.862 40.0133 159.904 39.8317 159.904 39.625ZM162.153 40.58L163.003 38.26H163.488L162.413 41H161.883L160.808 38.26H161.298L162.153 40.58ZM163.766 39.62C163.766 39.34 163.822 39.095 163.936 38.885C164.049 38.6717 164.204 38.5067 164.401 38.39C164.601 38.2733 164.822 38.215 165.066 38.215C165.306 38.215 165.514 38.2667 165.691 38.37C165.867 38.4733 165.999 38.6033 166.086 38.76V38.26H166.546V41H166.086V40.49C165.996 40.65 165.861 40.7833 165.681 40.89C165.504 40.9933 165.297 41.045 165.061 41.045C164.817 41.045 164.597 40.985 164.401 40.865C164.204 40.745 164.049 40.5767 163.936 40.36C163.822 40.1433 163.766 39.8967 163.766 39.62ZM166.086 39.625C166.086 39.4183 166.044 39.2383 165.961 39.085C165.877 38.9317 165.764 38.815 165.621 38.735C165.481 38.6517 165.326 38.61 165.156 38.61C164.986 38.61 164.831 38.65 164.691 38.73C164.551 38.81 164.439 38.9267 164.356 39.08C164.272 39.2333 164.231 39.4133 164.231 39.62C164.231 39.83 164.272 40.0133 164.356 40.17C164.439 40.3233 164.551 40.4417 164.691 40.525C164.831 40.605 164.986 40.645 165.156 40.645C165.326 40.645 165.481 40.605 165.621 40.525C165.764 40.4417 165.877 40.3233 165.961 40.17C166.044 40.0133 166.086 39.8317 166.086 39.625ZM168.65 38.21C168.983 38.21 169.253 38.3117 169.46 38.515C169.666 38.715 169.77 39.005 169.77 39.385V41H169.32V39.45C169.32 39.1767 169.251 38.9683 169.115 38.825C168.978 38.6783 168.791 38.605 168.555 38.605C168.315 38.605 168.123 38.68 167.98 38.83C167.84 38.98 167.77 39.1983 167.77 39.485V41H167.315V38.26H167.77V38.65C167.86 38.51 167.981 38.4017 168.135 38.325C168.291 38.2483 168.463 38.21 168.65 38.21ZM170.343 39.625C170.343 39.3417 170.4 39.095 170.513 38.885C170.626 38.6717 170.783 38.5067 170.983 38.39C171.186 38.2733 171.418 38.215 171.678 38.215C172.015 38.215 172.291 38.2967 172.508 38.46C172.728 38.6233 172.873 38.85 172.943 39.14H172.453C172.406 38.9733 172.315 38.8417 172.178 38.745C172.045 38.6483 171.878 38.6 171.678 38.6C171.418 38.6 171.208 38.69 171.048 38.87C170.888 39.0467 170.808 39.2983 170.808 39.625C170.808 39.955 170.888 40.21 171.048 40.39C171.208 40.57 171.418 40.66 171.678 40.66C171.878 40.66 172.045 40.6133 172.178 40.52C172.311 40.4267 172.403 40.2933 172.453 40.12H172.943C172.87 40.4 172.723 40.625 172.503 40.795C172.283 40.9617 172.008 41.045 171.678 41.045C171.418 41.045 171.186 40.9867 170.983 40.87C170.783 40.7533 170.626 40.5883 170.513 40.375C170.4 40.1617 170.343 39.9117 170.343 39.625ZM176.05 39.525C176.05 39.6117 176.045 39.7033 176.035 39.8H173.845C173.862 40.07 173.953 40.2817 174.12 40.435C174.29 40.585 174.495 40.66 174.735 40.66C174.932 40.66 175.095 40.615 175.225 40.525C175.358 40.4317 175.452 40.3083 175.505 40.155H175.995C175.922 40.4183 175.775 40.6333 175.555 40.8C175.335 40.9633 175.062 41.045 174.735 41.045C174.475 41.045 174.242 40.9867 174.035 40.87C173.832 40.7533 173.672 40.5883 173.555 40.375C173.438 40.1583 173.38 39.9083 173.38 39.625C173.38 39.3417 173.437 39.0933 173.55 38.88C173.663 38.6667 173.822 38.5033 174.025 38.39C174.232 38.2733 174.468 38.215 174.735 38.215C174.995 38.215 175.225 38.2717 175.425 38.385C175.625 38.4983 175.778 38.655 175.885 38.855C175.995 39.0517 176.05 39.275 176.05 39.525ZM175.58 39.43C175.58 39.2567 175.542 39.1083 175.465 38.985C175.388 38.8583 175.283 38.7633 175.15 38.7C175.02 38.6333 174.875 38.6 174.715 38.6C174.485 38.6 174.288 38.6733 174.125 38.82C173.965 38.9667 173.873 39.17 173.85 39.43H175.58ZM176.481 39.62C176.481 39.34 176.537 39.095 176.651 38.885C176.764 38.6717 176.919 38.5067 177.116 38.39C177.316 38.2733 177.539 38.215 177.786 38.215C177.999 38.215 178.197 38.265 178.381 38.365C178.564 38.4617 178.704 38.59 178.801 38.75V37.3H179.261V41H178.801V40.485C178.711 40.6483 178.577 40.7833 178.401 40.89C178.224 40.9933 178.017 41.045 177.781 41.045C177.537 41.045 177.316 40.985 177.116 40.865C176.919 40.745 176.764 40.5767 176.651 40.36C176.537 40.1433 176.481 39.8967 176.481 39.62ZM178.801 39.625C178.801 39.4183 178.759 39.2383 178.676 39.085C178.592 38.9317 178.479 38.815 178.336 38.735C178.196 38.6517 178.041 38.61 177.871 38.61C177.701 38.61 177.546 38.65 177.406 38.73C177.266 38.81 177.154 38.9267 177.071 39.08C176.987 39.2333 176.946 39.4133 176.946 39.62C176.946 39.83 176.987 40.0133 177.071 40.17C177.154 40.3233 177.266 40.4417 177.406 40.525C177.546 40.605 177.701 40.645 177.871 40.645C178.041 40.645 178.196 40.605 178.336 40.525C178.479 40.4417 178.592 40.3233 178.676 40.17C178.759 40.0133 178.801 39.8317 178.801 39.625ZM183.423 40.225H181.903L181.623 41H181.143L182.403 37.535H182.928L184.183 41H183.703L183.423 40.225ZM183.293 39.855L182.663 38.095L182.033 39.855H183.293ZM185.187 38.765C185.277 38.6083 185.41 38.4783 185.587 38.375C185.767 38.2683 185.975 38.215 186.212 38.215C186.455 38.215 186.675 38.2733 186.872 38.39C187.072 38.5067 187.228 38.6717 187.342 38.885C187.455 39.095 187.512 39.34 187.512 39.62C187.512 39.8967 187.455 40.1433 187.342 40.36C187.228 40.5767 187.072 40.745 186.872 40.865C186.675 40.985 186.455 41.045 186.212 41.045C185.978 41.045 185.772 40.9933 185.592 40.89C185.415 40.7833 185.28 40.6517 185.187 40.495V42.3H184.732V38.26H185.187V38.765ZM187.047 39.62C187.047 39.4133 187.005 39.2333 186.922 39.08C186.838 38.9267 186.725 38.81 186.582 38.73C186.442 38.65 186.287 38.61 186.117 38.61C185.95 38.61 185.795 38.6517 185.652 38.735C185.512 38.815 185.398 38.9333 185.312 39.09C185.228 39.2433 185.187 39.4217 185.187 39.625C185.187 39.8317 185.228 40.0133 185.312 40.17C185.398 40.3233 185.512 40.4417 185.652 40.525C185.795 40.605 185.95 40.645 186.117 40.645C186.287 40.645 186.442 40.605 186.582 40.525C186.725 40.4417 186.838 40.3233 186.922 40.17C187.005 40.0133 187.047 39.83 187.047 39.62ZM188.566 38.765C188.656 38.6083 188.789 38.4783 188.966 38.375C189.146 38.2683 189.354 38.215 189.591 38.215C189.834 38.215 190.054 38.2733 190.251 38.39C190.451 38.5067 190.607 38.6717 190.721 38.885C190.834 39.095 190.891 39.34 190.891 39.62C190.891 39.8967 190.834 40.1433 190.721 40.36C190.607 40.5767 190.451 40.745 190.251 40.865C190.054 40.985 189.834 41.045 189.591 41.045C189.357 41.045 189.151 40.9933 188.971 40.89C188.794 40.7833 188.659 40.6517 188.566 40.495V42.3H188.111V38.26H188.566V38.765ZM190.426 39.62C190.426 39.4133 190.384 39.2333 190.301 39.08C190.217 38.9267 190.104 38.81 189.961 38.73C189.821 38.65 189.666 38.61 189.496 38.61C189.329 38.61 189.174 38.6517 189.031 38.735C188.891 38.815 188.777 38.9333 188.691 39.09C188.607 39.2433 188.566 39.4217 188.566 39.625C188.566 39.8317 188.607 40.0133 188.691 40.17C188.777 40.3233 188.891 40.4417 189.031 40.525C189.174 40.605 189.329 40.645 189.496 40.645C189.666 40.645 189.821 40.605 189.961 40.525C190.104 40.4417 190.217 40.3233 190.301 40.17C190.384 40.0133 190.426 39.83 190.426 39.62ZM193.278 37.885V39.05H194.548V39.425H193.278V40.625H194.698V41H192.823V37.51H194.698V37.885H193.278ZM196.721 38.21C197.054 38.21 197.324 38.3117 197.531 38.515C197.738 38.715 197.841 39.005 197.841 39.385V41H197.391V39.45C197.391 39.1767 197.323 38.9683 197.186 38.825C197.049 38.6783 196.863 38.605 196.626 38.605C196.386 38.605 196.194 38.68 196.051 38.83C195.911 38.98 195.841 39.1983 195.841 39.485V41H195.386V38.26H195.841V38.65C195.931 38.51 196.053 38.4017 196.206 38.325C196.363 38.2483 196.534 38.21 196.721 38.21ZM199.714 38.215C199.951 38.215 200.158 38.2667 200.334 38.37C200.514 38.4733 200.648 38.6033 200.734 38.76V38.26H201.194V41.06C201.194 41.31 201.141 41.5317 201.034 41.725C200.928 41.9217 200.774 42.075 200.574 42.185C200.378 42.295 200.148 42.35 199.884 42.35C199.524 42.35 199.224 42.265 198.984 42.095C198.744 41.925 198.603 41.6933 198.559 41.4H199.009C199.059 41.5667 199.163 41.7 199.319 41.8C199.476 41.9033 199.664 41.955 199.884 41.955C200.134 41.955 200.338 41.8767 200.494 41.72C200.654 41.5633 200.734 41.3433 200.734 41.06V40.485C200.644 40.645 200.511 40.7783 200.334 40.885C200.158 40.9917 199.951 41.045 199.714 41.045C199.471 41.045 199.249 40.985 199.049 40.865C198.853 40.745 198.698 40.5767 198.584 40.36C198.471 40.1433 198.414 39.8967 198.414 39.62C198.414 39.34 198.471 39.095 198.584 38.885C198.698 38.6717 198.853 38.5067 199.049 38.39C199.249 38.2733 199.471 38.215 199.714 38.215ZM200.734 39.625C200.734 39.4183 200.693 39.2383 200.609 39.085C200.526 38.9317 200.413 38.815 200.269 38.735C200.129 38.6517 199.974 38.61 199.804 38.61C199.634 38.61 199.479 38.65 199.339 38.73C199.199 38.81 199.088 38.9267 199.004 39.08C198.921 39.2333 198.879 39.4133 198.879 39.62C198.879 39.83 198.921 40.0133 199.004 40.17C199.088 40.3233 199.199 40.4417 199.339 40.525C199.479 40.605 199.634 40.645 199.804 40.645C199.974 40.645 200.129 40.605 200.269 40.525C200.413 40.4417 200.526 40.3233 200.609 40.17C200.693 40.0133 200.734 39.8317 200.734 39.625ZM202.198 37.815C202.111 37.815 202.038 37.785 201.978 37.725C201.918 37.665 201.888 37.5917 201.888 37.505C201.888 37.4183 201.918 37.345 201.978 37.285C202.038 37.225 202.111 37.195 202.198 37.195C202.281 37.195 202.351 37.225 202.408 37.285C202.468 37.345 202.498 37.4183 202.498 37.505C202.498 37.5917 202.468 37.665 202.408 37.725C202.351 37.785 202.281 37.815 202.198 37.815ZM202.418 38.26V41H201.963V38.26H202.418ZM204.529 38.21C204.862 38.21 205.132 38.3117 205.339 38.515C205.545 38.715 205.649 39.005 205.649 39.385V41H205.199V39.45C205.199 39.1767 205.13 38.9683 204.994 38.825C204.857 38.6783 204.67 38.605 204.434 38.605C204.194 38.605 204.002 38.68 203.859 38.83C203.719 38.98 203.649 39.1983 203.649 39.485V41H203.194V38.26H203.649V38.65C203.739 38.51 203.86 38.4017 204.014 38.325C204.17 38.2483 204.342 38.21 204.529 38.21ZM208.892 39.525C208.892 39.6117 208.887 39.7033 208.877 39.8H206.687C206.704 40.07 206.795 40.2817 206.962 40.435C207.132 40.585 207.337 40.66 207.577 40.66C207.774 40.66 207.937 40.615 208.067 40.525C208.2 40.4317 208.294 40.3083 208.347 40.155H208.837C208.764 40.4183 208.617 40.6333 208.397 40.8C208.177 40.9633 207.904 41.045 207.577 41.045C207.317 41.045 207.084 40.9867 206.877 40.87C206.674 40.7533 206.514 40.5883 206.397 40.375C206.28 40.1583 206.222 39.9083 206.222 39.625C206.222 39.3417 206.279 39.0933 206.392 38.88C206.505 38.6667 206.664 38.5033 206.867 38.39C207.074 38.2733 207.31 38.215 207.577 38.215C207.837 38.215 208.067 38.2717 208.267 38.385C208.467 38.4983 208.62 38.655 208.727 38.855C208.837 39.0517 208.892 39.275 208.892 39.525ZM208.422 39.43C208.422 39.2567 208.384 39.1083 208.307 38.985C208.23 38.8583 208.125 38.7633 207.992 38.7C207.862 38.6333 207.717 38.6 207.557 38.6C207.327 38.6 207.13 38.6733 206.967 38.82C206.807 38.9667 206.715 39.17 206.692 39.43H208.422ZM211.992 39.525C211.992 39.6117 211.987 39.7033 211.977 39.8H209.787C209.804 40.07 209.896 40.2817 210.062 40.435C210.232 40.585 210.437 40.66 210.677 40.66C210.874 40.66 211.037 40.615 211.167 40.525C211.301 40.4317 211.394 40.3083 211.447 40.155H211.937C211.864 40.4183 211.717 40.6333 211.497 40.8C211.277 40.9633 211.004 41.045 210.677 41.045C210.417 41.045 210.184 40.9867 209.977 40.87C209.774 40.7533 209.614 40.5883 209.497 40.375C209.381 40.1583 209.322 39.9083 209.322 39.625C209.322 39.3417 209.379 39.0933 209.492 38.88C209.606 38.6667 209.764 38.5033 209.967 38.39C210.174 38.2733 210.411 38.215 210.677 38.215C210.937 38.215 211.167 38.2717 211.367 38.385C211.567 38.4983 211.721 38.655 211.827 38.855C211.937 39.0517 211.992 39.275 211.992 39.525ZM211.522 39.43C211.522 39.2567 211.484 39.1083 211.407 38.985C211.331 38.8583 211.226 38.7633 211.092 38.7C210.962 38.6333 210.817 38.6 210.657 38.6C210.427 38.6 210.231 38.6733 210.067 38.82C209.907 38.9667 209.816 39.17 209.792 39.43H211.522ZM213.048 38.705C213.128 38.5483 213.241 38.4267 213.388 38.34C213.538 38.2533 213.72 38.21 213.933 38.21V38.68H213.813C213.303 38.68 213.048 38.9567 213.048 39.51V41H212.593V38.26H213.048V38.705ZM214.693 37.815C214.607 37.815 214.533 37.785 214.473 37.725C214.413 37.665 214.383 37.5917 214.383 37.505C214.383 37.4183 214.413 37.345 214.473 37.285C214.533 37.225 214.607 37.195 214.693 37.195C214.777 37.195 214.847 37.225 214.903 37.285C214.963 37.345 214.993 37.4183 214.993 37.505C214.993 37.5917 214.963 37.665 214.903 37.725C214.847 37.785 214.777 37.815 214.693 37.815ZM214.913 38.26V41H214.458V38.26H214.913ZM217.024 38.21C217.357 38.21 217.627 38.3117 217.834 38.515C218.04 38.715 218.144 39.005 218.144 39.385V41H217.694V39.45C217.694 39.1767 217.625 38.9683 217.489 38.825C217.352 38.6783 217.165 38.605 216.929 38.605C216.689 38.605 216.497 38.68 216.354 38.83C216.214 38.98 216.144 39.1983 216.144 39.485V41H215.689V38.26H216.144V38.65C216.234 38.51 216.355 38.4017 216.509 38.325C216.665 38.2483 216.837 38.21 217.024 38.21ZM220.017 38.215C220.254 38.215 220.46 38.2667 220.637 38.37C220.817 38.4733 220.95 38.6033 221.037 38.76V38.26H221.497V41.06C221.497 41.31 221.444 41.5317 221.337 41.725C221.23 41.9217 221.077 42.075 220.877 42.185C220.68 42.295 220.45 42.35 220.187 42.35C219.827 42.35 219.527 42.265 219.287 42.095C219.047 41.925 218.905 41.6933 218.862 41.4H219.312C219.362 41.5667 219.465 41.7 219.622 41.8C219.779 41.9033 219.967 41.955 220.187 41.955C220.437 41.955 220.64 41.8767 220.797 41.72C220.957 41.5633 221.037 41.3433 221.037 41.06V40.485C220.947 40.645 220.814 40.7783 220.637 40.885C220.46 40.9917 220.254 41.045 220.017 41.045C219.774 41.045 219.552 40.985 219.352 40.865C219.155 40.745 219 40.5767 218.887 40.36C218.774 40.1433 218.717 39.8967 218.717 39.62C218.717 39.34 218.774 39.095 218.887 38.885C219 38.6717 219.155 38.5067 219.352 38.39C219.552 38.2733 219.774 38.215 220.017 38.215ZM221.037 39.625C221.037 39.4183 220.995 39.2383 220.912 39.085C220.829 38.9317 220.715 38.815 220.572 38.735C220.432 38.6517 220.277 38.61 220.107 38.61C219.937 38.61 219.782 38.65 219.642 38.73C219.502 38.81 219.39 38.9267 219.307 39.08C219.224 39.2333 219.182 39.4133 219.182 39.62C219.182 39.83 219.224 40.0133 219.307 40.17C219.39 40.3233 219.502 40.4417 219.642 40.525C219.782 40.605 219.937 40.645 220.107 40.645C220.277 40.645 220.432 40.605 220.572 40.525C220.715 40.4417 220.829 40.3233 220.912 40.17C220.995 40.0133 221.037 39.8317 221.037 39.625ZM225.659 40.225H224.139L223.859 41H223.379L224.639 37.535H225.164L226.419 41H225.939L225.659 40.225ZM225.529 39.855L224.899 38.095L224.269 39.855H225.529ZM227.938 41.045C227.728 41.045 227.54 41.01 227.373 40.94C227.206 40.8667 227.075 40.7667 226.978 40.64C226.881 40.51 226.828 40.3617 226.818 40.195H227.288C227.301 40.3317 227.365 40.4433 227.478 40.53C227.595 40.6167 227.746 40.66 227.933 40.66C228.106 40.66 228.243 40.6217 228.343 40.545C228.443 40.4683 228.493 40.3717 228.493 40.255C228.493 40.135 228.44 40.0467 228.333 39.99C228.226 39.93 228.061 39.8717 227.838 39.815C227.635 39.7617 227.468 39.7083 227.338 39.655C227.211 39.5983 227.101 39.5167 227.008 39.41C226.918 39.3 226.873 39.1567 226.873 38.98C226.873 38.84 226.915 38.7117 226.998 38.595C227.081 38.4783 227.2 38.3867 227.353 38.32C227.506 38.25 227.681 38.215 227.878 38.215C228.181 38.215 228.426 38.2917 228.613 38.445C228.8 38.5983 228.9 38.8083 228.913 39.075H228.458C228.448 38.9317 228.39 38.8167 228.283 38.73C228.18 38.6433 228.04 38.6 227.863 38.6C227.7 38.6 227.57 38.635 227.473 38.705C227.376 38.775 227.328 38.8667 227.328 38.98C227.328 39.07 227.356 39.145 227.413 39.205C227.473 39.2617 227.546 39.3083 227.633 39.345C227.723 39.3783 227.846 39.4167 228.003 39.46C228.2 39.5133 228.36 39.5667 228.483 39.62C228.606 39.67 228.711 39.7467 228.798 39.85C228.888 39.9533 228.935 40.0883 228.938 40.255C228.938 40.405 228.896 40.54 228.813 40.66C228.73 40.78 228.611 40.875 228.458 40.945C228.308 41.0117 228.135 41.045 227.938 41.045ZM230.55 41.045C230.34 41.045 230.152 41.01 229.985 40.94C229.819 40.8667 229.687 40.7667 229.59 40.64C229.494 40.51 229.44 40.3617 229.43 40.195H229.9C229.914 40.3317 229.977 40.4433 230.09 40.53C230.207 40.6167 230.359 40.66 230.545 40.66C230.719 40.66 230.855 40.6217 230.955 40.545C231.055 40.4683 231.105 40.3717 231.105 40.255C231.105 40.135 231.052 40.0467 230.945 39.99C230.839 39.93 230.674 39.8717 230.45 39.815C230.247 39.7617 230.08 39.7083 229.95 39.655C229.824 39.5983 229.714 39.5167 229.62 39.41C229.53 39.3 229.485 39.1567 229.485 38.98C229.485 38.84 229.527 38.7117 229.61 38.595C229.694 38.4783 229.812 38.3867 229.965 38.32C230.119 38.25 230.294 38.215 230.49 38.215C230.794 38.215 231.039 38.2917 231.225 38.445C231.412 38.5983 231.512 38.8083 231.525 39.075H231.07C231.06 38.9317 231.002 38.8167 230.895 38.73C230.792 38.6433 230.652 38.6 230.475 38.6C230.312 38.6 230.182 38.635 230.085 38.705C229.989 38.775 229.94 38.8667 229.94 38.98C229.94 39.07 229.969 39.145 230.025 39.205C230.085 39.2617 230.159 39.3083 230.245 39.345C230.335 39.3783 230.459 39.4167 230.615 39.46C230.812 39.5133 230.972 39.5667 231.095 39.62C231.219 39.67 231.324 39.7467 231.41 39.85C231.5 39.9533 231.547 40.0883 231.55 40.255C231.55 40.405 231.509 40.54 231.425 40.66C231.342 40.78 231.224 40.875 231.07 40.945C230.92 41.0117 230.747 41.045 230.55 41.045ZM233.388 41.045C233.131 41.045 232.898 40.9867 232.688 40.87C232.481 40.7533 232.318 40.5883 232.198 40.375C232.081 40.1583 232.023 39.9083 232.023 39.625C232.023 39.345 232.083 39.0983 232.203 38.885C232.326 38.6683 232.493 38.5033 232.703 38.39C232.913 38.2733 233.148 38.215 233.408 38.215C233.668 38.215 233.903 38.2733 234.113 38.39C234.323 38.5033 234.488 38.6667 234.608 38.88C234.731 39.0933 234.793 39.3417 234.793 39.625C234.793 39.9083 234.729 40.1583 234.603 40.375C234.479 40.5883 234.311 40.7533 234.098 40.87C233.884 40.9867 233.648 41.045 233.388 41.045ZM233.388 40.645C233.551 40.645 233.704 40.6067 233.848 40.53C233.991 40.4533 234.106 40.3383 234.193 40.185C234.283 40.0317 234.328 39.845 234.328 39.625C234.328 39.405 234.284 39.2183 234.198 39.065C234.111 38.9117 233.998 38.7983 233.858 38.725C233.718 38.6483 233.566 38.61 233.403 38.61C233.236 38.61 233.083 38.6483 232.943 38.725C232.806 38.7983 232.696 38.9117 232.613 39.065C232.529 39.2183 232.488 39.405 232.488 39.625C232.488 39.8483 232.528 40.0367 232.608 40.19C232.691 40.3433 232.801 40.4583 232.938 40.535C233.074 40.6083 233.224 40.645 233.388 40.645ZM235.221 39.625C235.221 39.3417 235.278 39.095 235.391 38.885C235.504 38.6717 235.661 38.5067 235.861 38.39C236.064 38.2733 236.296 38.215 236.556 38.215C236.893 38.215 237.169 38.2967 237.386 38.46C237.606 38.6233 237.751 38.85 237.821 39.14H237.331C237.284 38.9733 237.193 38.8417 237.056 38.745C236.923 38.6483 236.756 38.6 236.556 38.6C236.296 38.6 236.086 38.69 235.926 38.87C235.766 39.0467 235.686 39.2983 235.686 39.625C235.686 39.955 235.766 40.21 235.926 40.39C236.086 40.57 236.296 40.66 236.556 40.66C236.756 40.66 236.923 40.6133 237.056 40.52C237.189 40.4267 237.281 40.2933 237.331 40.12H237.821C237.748 40.4 237.601 40.625 237.381 40.795C237.161 40.9617 236.886 41.045 236.556 41.045C236.296 41.045 236.064 40.9867 235.861 40.87C235.661 40.7533 235.504 40.5883 235.391 40.375C235.278 40.1617 235.221 39.9117 235.221 39.625ZM238.663 37.815C238.576 37.815 238.503 37.785 238.443 37.725C238.383 37.665 238.353 37.5917 238.353 37.505C238.353 37.4183 238.383 37.345 238.443 37.285C238.503 37.225 238.576 37.195 238.663 37.195C238.746 37.195 238.816 37.225 238.873 37.285C238.933 37.345 238.963 37.4183 238.963 37.505C238.963 37.5917 238.933 37.665 238.873 37.725C238.816 37.785 238.746 37.815 238.663 37.815ZM238.883 38.26V41H238.428V38.26H238.883ZM239.488 39.62C239.488 39.34 239.545 39.095 239.658 38.885C239.772 38.6717 239.927 38.5067 240.123 38.39C240.323 38.2733 240.545 38.215 240.788 38.215C241.028 38.215 241.237 38.2667 241.413 38.37C241.59 38.4733 241.722 38.6033 241.808 38.76V38.26H242.268V41H241.808V40.49C241.718 40.65 241.583 40.7833 241.403 40.89C241.227 40.9933 241.02 41.045 240.783 41.045C240.54 41.045 240.32 40.985 240.123 40.865C239.927 40.745 239.772 40.5767 239.658 40.36C239.545 40.1433 239.488 39.8967 239.488 39.62ZM241.808 39.625C241.808 39.4183 241.767 39.2383 241.683 39.085C241.6 38.9317 241.487 38.815 241.343 38.735C241.203 38.6517 241.048 38.61 240.878 38.61C240.708 38.61 240.553 38.65 240.413 38.73C240.273 38.81 240.162 38.9267 240.078 39.08C239.995 39.2333 239.953 39.4133 239.953 39.62C239.953 39.83 239.995 40.0133 240.078 40.17C240.162 40.3233 240.273 40.4417 240.413 40.525C240.553 40.605 240.708 40.645 240.878 40.645C241.048 40.645 241.203 40.605 241.343 40.525C241.487 40.4417 241.6 40.3233 241.683 40.17C241.767 40.0133 241.808 39.8317 241.808 39.625ZM243.592 38.635V40.25C243.592 40.3833 243.621 40.4783 243.677 40.535C243.734 40.5883 243.832 40.615 243.972 40.615H244.307V41H243.897C243.644 41 243.454 40.9417 243.327 40.825C243.201 40.7083 243.137 40.5167 243.137 40.25V38.635H242.782V38.26H243.137V37.57H243.592V38.26H244.307V38.635H243.592ZM247.359 39.525C247.359 39.6117 247.354 39.7033 247.344 39.8H245.154C245.17 40.07 245.262 40.2817 245.429 40.435C245.599 40.585 245.804 40.66 246.044 40.66C246.24 40.66 246.404 40.615 246.534 40.525C246.667 40.4317 246.76 40.3083 246.814 40.155H247.304C247.23 40.4183 247.084 40.6333 246.864 40.8C246.644 40.9633 246.37 41.045 246.044 41.045C245.784 41.045 245.55 40.9867 245.344 40.87C245.14 40.7533 244.98 40.5883 244.864 40.375C244.747 40.1583 244.689 39.9083 244.689 39.625C244.689 39.3417 244.745 39.0933 244.859 38.88C244.972 38.6667 245.13 38.5033 245.334 38.39C245.54 38.2733 245.777 38.215 246.044 38.215C246.304 38.215 246.534 38.2717 246.734 38.385C246.934 38.4983 247.087 38.655 247.194 38.855C247.304 39.0517 247.359 39.275 247.359 39.525ZM246.889 39.43C246.889 39.2567 246.85 39.1083 246.774 38.985C246.697 38.8583 246.592 38.7633 246.459 38.7C246.329 38.6333 246.184 38.6 246.024 38.6C245.794 38.6 245.597 38.6733 245.434 38.82C245.274 38.9667 245.182 39.17 245.159 39.43H246.889Z" fill="black"/>
</svg>
